<?xml version="1.0" encoding="UTF-8" standalone="no"?>
<!DOCTYPE svg PUBLIC "-//W3C//DTD SVG 1.1//EN" "http://www.w3.org/Graphics/SVG/1.1/DTD/svg11.dtd">
<svg width="100%" height="100%" viewBox="0 0 256 256" version="1.1" xmlns="http://www.w3.org/2000/svg" xmlns:xlink="http://www.w3.org/1999/xlink" xml:space="preserve" xmlns:serif="http://www.serif.com/" style="fill-rule:evenodd;clip-rule:evenodd;stroke-linejoin:round;stroke-miterlimit:2;">
    <g transform="matrix(4.912394,0,0,4.912394,-93.057748,-93.08231)">
        <path d="M67.8,30.59L45,41.87L22.2,30.59L45,19.32L67.8,30.59Z" style="fill:rgb(0,80,155);fill-rule:nonzero;stroke:rgb(0,80,155);stroke-width:0.2px;"/>
        <path d="M45,70.69L22.2,59.41L22.2,30.59L45,41.87L45,70.69" style="fill:white;fill-rule:nonzero;stroke:rgb(0,80,155);stroke-width:0.2px;"/>
        <path d="M67.8,59.41L45,70.69L45,41.87L67.8,30.59L67.8,59.41Z" style="fill:white;fill-rule:nonzero;stroke:rgb(0,80,155);stroke-width:0.2px;"/>
        <g transform="matrix(0.837553,0,0,0.837553,7.310127,11.483396)">
            <path d="M45,41.87L45,70.69L22.2,59.41L22.2,30.59L45,41.87Z" style="fill:rgb(85,189,203);stroke:rgb(0,80,155);stroke-width:0.24px;"/>
        </g>
        <g transform="matrix(0.837553,0,0,0.837553,7.310127,11.483396)">
            <path d="M67.8,59.41L45,70.69L45,41.87L67.8,30.59L67.8,59.41Z" style="fill:rgb(85,189,203);stroke:rgb(0,80,155);stroke-width:0.24px;"/>
        </g>
        <g transform="matrix(0.837553,0,0,0.837553,7.310127,11.483396)">
            <path d="M45,70.69L22.2,59.41L22.2,30.59L45,41.87L67.8,30.59L67.8,59.41L45,70.69Z" style="fill:rgb(85,189,203);stroke:rgb(0,80,155);stroke-width:0.24px;"/>
        </g>
        <path d="M45,46.552L25.904,37.104L25.904,61.242L22.2,59.41L22.2,30.59L45,41.87L67.8,30.59L67.8,59.41L64.096,61.242L64.096,37.104L45,46.552Z" style="fill:white;stroke:rgb(0,80,155);stroke-width:0.2px;"/>
    </g>
</svg>
